<svg width="128" height="128" viewBox="0 0 128 128" fill="none" xmlns="http://www.w3.org/2000/svg">
<mask id="mask0_134_3843" style="mask-type:luminance" maskUnits="userSpaceOnUse" x="7" y="38" width="113" height="52">
<path d="M119.939 38.5858H7.93945V89.1703H119.939V38.5858Z" fill="white"/>
</mask>
<g mask="url(#mask0_134_3843)">
<mask id="mask1_134_3843" style="mask-type:luminance" maskUnits="userSpaceOnUse" x="7" y="38" width="113" height="52">
<path d="M119.987 38.5857H7.94238V89.1701H119.987V38.5857Z" fill="white"/>
</mask>
<g mask="url(#mask1_134_3843)">
<path d="M38.631 59.6343C52.4183 62.3028 56.6977 75.0663 56.8106 87.9036C56.8131 88.1924 56.5799 88.428 56.291 88.428H38.9355C38.6492 88.428 38.416 88.1969 38.4144 87.91C38.3623 77.9505 36.7486 69.1615 26.8802 68.7821C26.5858 68.7709 26.3405 69.0067 26.3405 69.3016V87.9086C26.3405 88.1954 26.1078 88.428 25.8209 88.428H8.46188C8.17507 88.428 7.94238 88.1959 7.94238 87.9086V40.4973C7.94238 40.2105 8.17507 39.9778 8.46188 39.9778H25.8209C26.1078 39.9778 26.3405 40.2105 26.3405 40.4973V58.2576C26.3405 58.521 26.5539 58.7345 26.8175 58.7345C27.0264 58.7345 27.212 58.5984 27.2727 58.3982C31.7443 43.7524 40.0954 40.0698 53.656 39.9793C53.9438 39.9773 54.1796 40.211 54.1796 40.4988V58.215C54.1796 58.5017 53.947 58.7345 53.6601 58.7345H38.7179C38.4672 58.7345 38.2636 58.9378 38.2636 59.1888C38.2636 59.4062 38.4179 59.5935 38.631 59.6343ZM86.154 70.7367V59.254C86.154 58.9671 86.3866 58.7345 86.6735 58.7345H99.4476C99.6989 58.7345 99.9028 58.5306 99.9028 58.2793C99.9028 58.0612 99.7476 57.8746 99.5337 57.8326C89.5391 55.8502 84.9253 50.0967 84.766 40.4978C84.7615 40.2125 84.9906 39.9778 85.2753 39.9778H104.033C104.319 39.9778 104.552 40.2105 104.552 40.4973V48.5837C104.552 48.8705 104.785 49.1032 105.072 49.1032H115.827C116.114 49.1032 116.346 49.3359 116.346 49.6227V58.215C116.346 58.5017 116.114 58.7345 115.827 58.7345H105.072C104.785 58.7345 104.552 58.9671 104.552 59.254V68.5161C104.552 71.7882 106.558 72.8673 109.226 72.8673C113.407 72.8673 117.531 70.9836 119.185 70.1297C119.531 69.9512 119.942 70.2025 119.942 70.5914V85.0101C119.942 85.3951 119.73 85.7491 119.389 85.9286C117.756 86.7876 112.708 89.1692 106.933 89.1692C95.0553 89.1701 86.154 84.3283 86.154 70.7367ZM61.737 87.9086V59.253C61.737 58.9661 61.9696 58.7335 62.2565 58.7335H79.6155C79.9023 58.7335 80.1351 58.9661 80.1351 59.253V87.9086C80.1351 88.1954 79.9023 88.428 79.6155 88.428H62.2565C61.9696 88.428 61.737 88.1959 61.737 87.9086ZM60.754 47.4172C60.754 52.2946 64.1984 56.2488 70.8158 56.2488C77.4332 56.2488 80.8776 52.2946 80.8776 47.4172C80.8776 42.5399 77.4328 38.5857 70.8158 38.5857C64.1984 38.5857 60.754 42.5399 60.754 47.4172Z" fill="#1E1E1E"/>
</g>
</g>
</svg>
